<svg xmlns="http://www.w3.org/2000/svg" viewBox="0 0 240 64" fill="none">
  <!-- Flame / Shield mark -->
  <g>
    <!-- Outer flame -->
    <path d="M22 56 C10 44 8 28 18 16 C16 28 22 32 24 28 C24 40 32 44 28 56 Z" fill="#C8102E"/>
    <!-- Inner flame highlight -->
    <path d="M26 52 C18 42 18 32 24 24 C23 32 27 36 28 32 C28 40 33 44 30 52 Z" fill="#E8293A" opacity="0.7"/>
    <!-- Right flame -->
    <path d="M30 56 C42 44 44 28 34 16 C36 28 30 32 28 28 C28 40 20 44 24 56 Z" fill="#C8102E"/>
  </g>
  <!-- Leadway text -->
  <text x="52" y="36" font-family="'Arial Black', 'Helvetica Neue', Arial, sans-serif" font-weight="900" font-size="22" fill="#003087" letter-spacing="-0.5">leadway</text>
  <!-- Assurance text -->
  <text x="52" y="52" font-family="Arial, Helvetica, sans-serif" font-weight="600" font-size="11" fill="#C8102E" letter-spacing="2.5">ASSURANCE</text>
</svg>
